<svg class="icon notranslate" xmlns="http://www.w3.org/2000/svg" viewBox="0 0 153.65 49.716"><path d="M94.836 0c-2.7 0-5.182.44-7.443 1.32-2.26.882-4.067 2.145-5.417 3.79-1.32 1.614-1.982 3.478-1.982 5.592 0 1.556.455 2.965 1.365 4.228.94 1.262 2.275 2.143 4.007 2.642-3.17.793-5.578 2.085-7.222 3.876-1.615 1.76-2.423 3.905-2.423 6.43 0 .732.096 1.433.285 2.106-.633.696-1.192 1.267-1.656 1.68-.792.706-1.482 1.058-2.07 1.058-.85 0-1.276-.587-1.276-1.762 0-.822.28-2.51.837-5.064.647-2.995.97-5.065.97-6.21 0-1.908-.955-2.863-2.863-2.863-1.556 0-3.23.823-5.02 2.467-1.792 1.644-3.42 4.272-4.89 7.883.09-.528.25-1.32.485-2.378.558-2.466.837-4.17.837-5.11 0-.968-.22-1.687-.662-2.157-.41-.47-1.13-.705-2.158-.705s-2.13.397-3.303 1.19c-1.145.763-2.275 1.937-3.39 3.523-1.087 1.585-2.027 3.523-2.82 5.813.118-1.293.265-2.364.44-3.216.177-.88.412-1.908.706-3.083.44-1.643.66-2.7.66-3.17 0-.41-.117-.69-.352-.836-.234-.147-.645-.22-1.232-.22-1.087 0-1.938.205-2.555.616-.587.382-1.012.998-1.277 1.85-1.01 3.19-1.543 6.55-1.615 10.07-.846.973-1.56 1.732-2.13 2.26-.794.735-1.455 1.102-1.983 1.102-.558 0-.955-.235-1.19-.704-.234-.47-.352-1.146-.352-2.027 0-1.144.353-3.33 1.057-6.56.558-2.672.837-4.375.837-5.11 0-.997-.75-1.497-2.247-1.497-.97 0-1.674.177-2.114.53-.44.35-.794.997-1.058 1.937-.528 1.79-.97 3.73-1.32 5.813-.324 2.056-.485 3.743-.485 5.065 0 2.23.425 4.022 1.277 5.373.88 1.352 2.275 2.027 4.183 2.027 1.852 0 3.807-.96 5.863-2.87.087.42.19.79.307 1.108.47 1.174 1.263 1.762 2.38 1.762.91 0 1.57-.235 1.98-.705.44-.5.823-1.44 1.146-2.82.38-1.584.88-3.2 1.497-4.843.645-1.645 1.306-2.996 1.98-4.053.677-1.057 1.235-1.585 1.675-1.585.323 0 .484.234.484.704 0 .587-.118 1.82-.353 3.7-.294 2.114-.44 3.73-.44 4.844 0 1.322.235 2.452.705 3.39.5.912 1.233 1.367 2.2 1.367.94 0 1.616-.235 2.027-.705.44-.47.82-1.41 1.144-2.82a31.548 31.548 0 011.718-5.107c.705-1.615 1.41-2.907 2.114-3.876.705-1 1.248-1.498 1.63-1.498.322 0 .484.234.484.704 0 .705-.19 1.982-.573 3.832-.41 2.114-.616 3.582-.616 4.404 0 1.644.382 2.906 1.146 3.787.763.85 1.893 1.277 3.39 1.277 1.85 0 3.495-.5 4.933-1.498a18.354 18.354 0 003.01-2.593c1.21 1.176 2.88 2.13 5.01 2.857 2.497.822 5.594 1.233 9.293 1.233 2.672 0 5.388-.235 8.148-.705 2.76-.5 5.007-1.16 6.74-1.982.787-.382 1.39-.8 1.816-1.25.22-.158.432-.316.624-.468 1.057-.86 1.878-2.107 2.466-3.738-.265 1.563-.5 2.764-.705 3.602l-.13.782c-3.143 1.858-5.58 3.5-7.312 4.93-1.703 1.45-2.877 2.73-3.523 3.84-.617 1.11-.925 2.198-.925 3.263 0 1.156.47 2.086 1.41 2.788.94.725 2.157 1.087 3.655 1.087 2.79 0 5.08-1.348 6.87-4.044 1.82-2.673 3.288-6.355 4.404-11.046l5.465-.827a8.04 8.04 0 001.865 2.847c1.703 1.673 4.096 2.51 7.18 2.51 3.62-.295 7.08-1.405 9.506-3.848 2.094-2.037 3.795-4.648 5.008-6.942.41.47.85 1.028 1.32 1.674a9.36 9.36 0 011.146 1.937c.323.676.5 1.395.53 2.158-.265-.03-.662-.073-1.19-.13-.5-.09-.94-.134-1.322-.134-1.086 0-1.908.278-2.466.836-.558.558-.837 1.218-.837 1.982 0 .88.396 1.673 1.19 2.378.82.704 1.996 1.057 3.523 1.057 1.32 0 2.495-.337 3.523-1.013a6.884 6.884 0 002.38-2.642c.586-1.116.88-2.29.88-3.524 0-1.027-.25-1.967-.75-2.818-.47-.88-1.173-1.938-2.113-3.17-.646-.794-1.13-1.454-1.453-1.983-.294-.528-.44-1.013-.44-1.454 0-.735.264-1.63.792-2.687.206-.38.367-.763.485-1.145.118-.38.177-.66.177-.836 0-.323-.16-.56-.484-.705-.323-.147-.896-.22-1.718-.22-1.762 0-2.922.646-3.48 1.937-.88 2.026-1.6 3.626-2.157 4.8-.53 1.175-1.057 2.188-1.586 3.04-.64 1.004-1.524 2.226-2.642 3.656a15.17 15.17 0 01-2.844 2.025c-1.674.91-3.17 1.365-4.493 1.365-2.055 0-3.45-.675-4.183-2.026 3.464-.85 5.916-1.996 7.354-3.435 1.468-1.47 2.203-3.216 2.203-5.242 0-1.732-.514-3.097-1.542-4.096-1.027-1.027-2.393-1.54-4.096-1.54-1.91 0-3.627.513-5.153 1.54-1.498 1.028-2.672 2.423-3.524 4.185-.85 1.732-1.277 3.61-1.277 5.636 0 .126.004.25.007.372-1.105.15-1.76.216-3.903.468l1.145-5.472c.764-3.33 1.145-5.28 1.145-5.845 0-.317-.132-.544-.397-.68-.264-.136-.733-.204-1.41-.204-.968 0-1.702.15-2.2.443-.47.295-.823.782-1.057 1.462-.705 2.016-1.44 3.716-2.202 5.098-.734 1.382-1.44 2.413-2.114 3.093-.646.68-1.19 1.02-1.63 1.02-.616 0-.925-.43-.925-1.292 0-.544.088-1.235.264-2.073.175-.86.38-1.755.616-2.684.176-.68.41-1.44.705-2.278.324-1.042.485-1.654.485-1.835a.778.778 0 00-.397-.714c-.234-.16-.674-.24-1.32-.24-1.145 0-1.982.15-2.51.443-.53.295-.94.782-1.234 1.462-.675 1.586-1.16 3.093-1.453 4.52-.293 1.405-.44 2.957-.44 4.657 0 .544.008 1.148.063 1.74-.433.045-.884.11-1.358.213-2.7.558-5.27.837-7.707.837-3.7 0-6.4-.455-8.103-1.366-1.703-.94-2.555-2.32-2.555-4.14 0-1.086.353-2.098 1.057-3.038.734-.97 1.894-1.762 3.48-2.38 1.614-.615 3.64-.953 6.077-1.01 1.76-.03 2.642-1.014 2.642-2.952 0-.617-.132-1.057-.396-1.32-.264-.265-.72-.412-1.365-.442-2.555-.088-4.404-.572-5.55-1.453-1.115-.91-1.673-2.054-1.673-3.434 0-1.79.75-3.215 2.246-4.272 1.498-1.057 3.494-1.585 5.99-1.585 1.85 0 3.17.336 3.963 1.01.794.647 1.19 1.5 1.19 2.556 0 .352-.073 1.013-.22 1.982a6.737 6.737 0 00-.22 1.63c0 .733.235 1.29.705 1.673.47.353 1.115.53 1.937.53 1.175 0 2.07-.53 2.687-1.587.645-1.086.968-2.495.968-4.227 0-2.496-.91-4.522-2.73-6.078C101.207.793 98.477 0 94.835 0zM21.36.088c-3.906 0-7.487 1.042-10.746 3.127-3.23 2.055-5.813 5.168-7.75 9.337C.953 16.692 0 21.742 0 27.702c0 3.17.455 5.842 1.365 8.015.91 2.172 2.114 3.787 3.61 4.844 1.528 1.058 3.187 1.587 4.978 1.587 3.26 0 5.256-2.04 5.99-6.122l1.894-10.614c3.405-.234 6.34-1.012 8.807-2.333 2.467-1.32 4.346-3.024 5.638-5.11 1.292-2.083 1.938-4.373 1.938-6.87 0-2.084-.5-3.948-1.498-5.592-.97-1.673-2.422-2.995-4.36-3.963C26.454.572 24.12.088 21.36.088zm-1.542 4.845c2.672 0 4.64.616 5.902 1.85 1.292 1.203 1.937 2.774 1.937 4.71 0 5.492-3.01 8.62-9.028 9.382l1.452-8.543c.06-.294.088-.676.088-1.146 0-.792-.22-1.365-.66-1.717-.41-.383-1.1-.574-2.07-.574-.85 0-1.6.22-2.246.66-.617.412-1.013 1.116-1.19 2.115a642.577 642.577 0 00-1.63 9.205c-.38-.03-.923-.102-1.628-.22a3.589 3.589 0 00-.66-.044c-.647 0-1.16.192-1.542.574-.353.38-.528.895-.528 1.54 0 .617.132 1.13.396 1.542.264.382.836.646 1.717.793-.148-.03.352.043 1.497.22l-1.453 8.323c-.382 2.026-.94 3.04-1.674 3.04-.53 0-1.086-.383-1.674-1.146-.557-.793-1.027-1.894-1.41-3.303-.35-1.41-.527-3.024-.527-4.845 0-4.346.6-8.207 1.804-11.584 1.233-3.405 2.965-6.062 5.197-7.97 2.26-1.91 4.904-2.863 7.928-2.863zm21.91 1.276c-1.548 0-2.85.452-3.908 1.358-1.02.868-1.528 1.963-1.528 3.284 0 1.32.396 2.36 1.19 3.114.792.717 1.98 1.076 3.566 1.076 1.623 0 2.925-.434 3.906-1.302.982-.906 1.473-2.114 1.473-3.624 0-1.245-.434-2.208-1.303-2.888-.868-.68-2-1.02-3.397-1.02zm.453.928c1.033 0 1.87.224 2.51.673.642.45.963 1.086.963 1.91 0 .998-.363 1.796-1.088 2.395-.725.574-1.686.86-2.885.86-1.17 0-2.05-.236-2.635-.71-.586-.5-.878-1.185-.878-2.058 0-.874.376-1.597 1.13-2.17.78-.6 1.74-.9 2.884-.9zm-.016.755c-.72 0-1.324.204-1.815.614-.475.392-.712.887-.712 1.485 0 .597.184 1.066.553 1.407.37.324.922.486 1.66.486.753 0 1.358-.197 1.815-.59.456-.41.684-.955.684-1.637 0-.044-.005-.084-.007-.125-.17.053-.355.08-.56.08-.45 0-.785-.108-1.01-.325-.223-.228-.335-.54-.335-.94 0-.158.023-.304.068-.44a3.746 3.746 0 00-.342-.017zm87.767 14.834c.53 0 .94.176 1.234.528.323.323.484.764.484 1.322 0 1.086-.5 2.04-1.497 2.862-.998.82-2.362 1.438-4.095 1.85v-.09c0-1.79.367-3.317 1.1-4.58.764-1.262 1.69-1.893 2.776-1.893zm-19.574 15.16c-.91 3.06-1.82 5.246-2.73 6.56-.91 1.314-1.733 1.97-2.467 1.97-.44 0-.764-.123-.97-.372-.176-.25-.264-.567-.264-.952 0-.907.5-1.972 1.498-3.195 1.027-1.2 2.67-2.538 4.932-4.01z" fill="#fff"></path></svg>